<svg height="400" viewBox="0 0 400 400" width="400" xmlns="http://www.w3.org/2000/svg"><defs><linearGradient id="gradient-13856" x1="61.24755271719325%" x2="38.75244728280675%" y1="1.2814967607382357%" y2="98.71850323926176%"><stop offset="0%" stop-color="rgb(120,202,106)"></stop><stop offset="100%" stop-color="rgb(182,192,174)"></stop></linearGradient><linearGradient id="gradient-14176" x1="82.13938048432698%" x2="17.86061951567303%" y1="88.3022221559489%" y2="11.697777844051103%"><stop offset="0%" stop-color="rgb(244,131,120)"></stop><stop offset="100%" stop-color="rgb(235,120,196)"></stop></linearGradient></defs><g><path d="M199.43079527477002 74.52483876942168 Q188.2931088898795 95.97132897159285 195.24391877533452 154.41520154978758 M222.87454454645035 85.76719706679805 C221.62922470038413 63.671741007214365 207.15390540545326 60.91037697655824 199.43079527477002 74.52483876942168 M207.88951765494258 107.06212531417164 C229.9849737145263 105.81680546810543 232.74633774518242 91.34148617317453 219.13187595231898 83.61837604249132 M198.00884540314146 125.80228812190553 Q212.75211810838286 109.29786720086491 204.46910090649834 97.10969153617724 M194.8592503518051 151.57022681236532 Q204.8284997590667 131.81234063352997 193.67318753709355 122.1832695864197 M221.3057927713523 121.19590729927064 Q203.36137626469133 145.4960701842283 200.51462368957635 219.01066737265123 M248.05132465814447 139.660103032976 C250.83445335343143 112.13730894034306 233.5030388670839 105.89755158108443 221.3057927713523 121.19590729927064 M225.38657834227595 163.02082513091904 C252.9093724349089 165.80395382620603 259.1491297941675 148.47253933985846 243.85077407598132 136.27529324412689 M209.52328818735026 184.22552841605034 Q230.95281170080435 166.73194324930085 223.10982573164367 150.06460779675928 M200.59602316980948 215.42301265203577 Q216.76768036824592 192.97913813233083 204.8781138191806 178.9096425025882 M169.30521198286237 59.25979151882805 Q197.3333514483836 98.63520768299438 199.83465124310953 216.32014087045428 M126.0032870849054 88.05116696585549 C122.3195017688862 43.94368771635084 150.2197795440518 34.44555631756509 169.30521198286237 59.25979151882805 M161.6090367625113 126.05551658396716 C117.50155751300667 129.73930189998634 108.0034261142209 101.83902412482075 132.81766131548386 82.7535916860102 M186.394318360728 160.4208386532952 Q152.60079110496574 131.83697055231815 165.61307359609137 105.39230181982794 M199.80461304413802 210.57849459807488 Q174.56062175362499 174.22218972911853 193.97390538016788 152.04642776170462" fill-rule="evenodd" fill="none" stroke-linecap="round" stroke-width="6" stroke="url(#gradient-13856)"></path><path d="M200.0 320.0 C275.0 275.0 250.0 230.0 200.0 218.0 M200.0 320.0 C125.0 275.0 150.0 230.0 200.0 218.0 M212 288 L222 298 M228 284 L234 290 M207 303 L213 309 M169 237 L172 240 M200 319 Q192 329 200 342" fill-rule="evenodd" fill="rgba(244,131,120,0.2)" stroke-linecap="round" stroke-width="7" stroke="url(#gradient-14176)"></path></g></svg>